# xmcd
#
# Track frame offsets:
#	150
#	10999
#	30499
#	47762
#	74059
#	90397
#	106308
#	123416
#	140046
#	158287
#	174900
#	192727
#	211036
#	229776
#
# Disc length: 3469 seconds
#
# Revision: 12
# Processed by: cddbd v1.5.2PL0 Copyright (c) Steve Scherf et al.
# Submitted via: Jack! The Knife 20 Magnifico
#
DISCID=b70d8b0e
DTITLE=Bullet For My Valentine - The Poison
DYEAR=2005
DGENRE=Metal
TTITLE0=Intro
TTITLE1=Her Voice Resides
TTITLE2=4 Words (To Choke Upon)
TTITLE3=Tears Don't Fall
TTITLE4=Suffocating Under Words Of Sorrow (What Can I Do)
TTITLE5=Hit The Floor
TTITLE6=All These Things I Hate (Revolve Around Me)
TTITLE7=Hand Of Blood
TTITLE8=Room 409
TTITLE9=The Poison
TTITLE10=10 Years Today
TTITLE11=Cries In Vain
TTITLE12=Spit You Out
TTITLE13=The End
EXTD=Colin Richardson
EXTT0=Tuck, Paget, James, Thomas
EXTT1=Tuck, Paget, James, Thomas
EXTT2=Tuck, Paget, James, Thomas
EXTT3=Tuck, Paget, James, Thomas
EXTT4=Tuck, Paget, James, Thomas
EXTT5=Tuck, Paget, James, Thomas
EXTT6=Tuck, Paget, James, Thomas
EXTT7=Tuck, Paget, James, Thomas
EXTT8=Tuck, Paget, James, Thomas
EXTT9=Tuck, Paget, James, Thomas
EXTT10=Tuck, Paget, James, Thomas
EXTT11=Tuck, Paget, James, Thomas
EXTT12=Tuck, Paget, James, Thomas
EXTT13=Tuck, Paget, James, Thomas
PLAYORDER=
